<svg width="106" height="112" viewBox="0 0 106 112" fill="none" xmlns="http://www.w3.org/2000/svg">
<path d="M0 8C0 3.58172 3.58172 0 8 0H98C102.418 0 106 3.58172 106 8V104C106 108.418 102.418 112 98 112H8C3.58172 112 0 108.418 0 104V8Z" fill="#27272A"/>
<path d="M42.9167 26C43.9167 25 43.1667 22 41.4787 22C39.7907 22 39.9167 24 40.9167 24C41.9167 24 41.9167 26 41.9167 27C41.9167 28 42.9167 26 42.9167 26ZM38.7337 27.72C39.7337 26.72 38.9837 23.72 37.2957 23.72C35.6077 23.72 35.7337 25.72 36.7337 25.72C37.7337 25.72 37.7337 27.72 37.7337 28.72C37.7337 29.72 38.7337 27.72 38.7337 27.72Z" fill="#AA8DD8"/>
<path d="M65.1087 54.856C65.2977 55.664 66.3357 57.136 67.1407 56.947C67.9467 56.757 68.2177 54.976 68.0287 54.17C67.8397 53.362 67.0307 52.863 66.2247 53.053C65.4197 53.243 64.9187 54.05 65.1087 54.856ZM59.6747 55.505C59.6777 56.335 60.3557 58.003 61.1837 58C62.0117 57.996 62.6777 56.323 62.6747 55.494C62.6717 54.665 61.9977 53.997 61.1697 53.999C60.3417 54.003 59.6717 54.676 59.6747 55.505ZM54.4037 53.059C54.0777 53.823 54.0387 55.622 54.7997 55.949C55.5627 56.273 56.8367 55.002 57.1627 54.239C57.4877 53.477 57.1347 52.596 56.3737 52.269C55.6117 51.944 54.7307 52.296 54.4037 53.059ZM49.3727 42.019C48.5607 42.191 47.0647 43.192 47.2337 44.002C47.4067 44.812 49.1787 45.126 49.9907 44.955C50.8017 44.784 51.3197 43.988 51.1507 43.178C50.9787 42.368 50.1857 41.848 49.3727 42.019ZM47.3357 37.019C46.5237 37.191 45.0277 38.192 45.1967 39.002C45.3697 39.812 47.1417 40.126 47.9537 39.955C48.7647 39.784 49.2827 38.988 49.1137 38.178C48.9417 37.368 48.1477 36.848 47.3357 37.019Z" fill="#744EAA"/>
<path d="M62.7457 56C65.5767 56 67.6717 55.123 68.0117 54.973C70.2827 53.963 71.3047 51.304 70.2957 49.034C69.2967 46.784 66.6797 45.759 64.4237 46.72C64.2907 46.77 62.6307 47.369 61.0807 46.648C59.2297 45.787 58.0857 43.339 57.4527 41.439C57.3087 41.009 57.0677 40.165 56.7667 39.123C54.9007 32.652 53.9347 30.838 52.7837 29.303C49.0727 24.352 43.1917 24.007 40.3007 24.587C37.8637 25.074 36.2827 27.445 36.7707 29.882C37.2587 32.32 39.6307 33.902 42.0667 33.412C42.2287 33.386 44.2707 33.106 45.4907 34.581C46.1337 35.868 47.5707 39.709 48.1207 41.615C48.4667 42.814 48.7497 43.786 48.9147 44.282C50.6877 49.599 53.5807 53.175 57.5177 54.911C59.3697 55.729 61.1717 56 62.7457 56Z" fill="#9266CC"/>
<path d="M42.1837 28C42.736 28 43.1837 27.5523 43.1837 27C43.1837 26.4477 42.736 26 42.1837 26C41.6314 26 41.1837 26.4477 41.1837 27C41.1837 27.5523 41.6314 28 42.1837 28Z" fill="#202024"/>
<path d="M66.4247 54.964C66.3357 54.964 66.2447 54.952 66.1557 54.928C65.6237 54.78 65.3117 54.229 65.4597 53.697C66.2167 50.975 64.6897 49.155 64.6747 49.137C64.3157 48.718 64.3627 48.086 64.7817 47.727C65.1997 47.368 65.8327 47.415 66.1917 47.834C66.2837 47.941 68.4257 50.494 67.3867 54.231C67.2647 54.674 66.8617 54.964 66.4247 54.964ZM59.2257 54.401C58.9807 54.401 58.7357 54.312 58.5417 54.131C58.1387 53.753 58.1177 53.12 58.4947 52.717C59.9797 51.13 59.9477 48.524 59.9467 48.497C59.9307 47.945 60.3657 47.485 60.9187 47.469C61.4607 47.464 61.9317 47.888 61.9467 48.441C61.9507 48.58 62.0197 51.878 59.9557 54.085C59.7587 54.295 59.4917 54.401 59.2257 54.401ZM50.6837 45.705C50.2037 45.705 49.7797 45.358 49.6987 44.868C49.6087 44.324 49.9767 43.808 50.5217 43.719C53.5957 43.209 55.2957 41.342 55.3127 41.323C55.6777 40.913 56.3107 40.874 56.7217 41.239C57.1337 41.604 57.1747 42.232 56.8127 42.645C56.7257 42.744 54.6567 45.06 50.8487 45.691C50.7927 45.701 50.7377 45.705 50.6837 45.705ZM53.6047 50.562C53.1797 50.562 52.7857 50.29 52.6507 49.864C52.4847 49.338 52.7767 48.775 53.3027 48.609C55.9957 47.756 57.1827 45.779 57.1947 45.759C57.4747 45.282 58.0867 45.122 58.5627 45.402C59.0397 45.681 59.1987 46.295 58.9197 46.77C58.8567 46.878 57.3247 49.433 53.9067 50.514C53.8057 50.547 53.7037 50.562 53.6047 50.562ZM48.9857 39.892C48.4897 39.892 48.0587 39.523 47.9947 39.017C47.9257 38.469 48.3137 37.969 48.8617 37.899C51.5507 37.559 53.5187 35.928 53.5377 35.911C53.9597 35.557 54.5907 35.608 54.9457 36.03C55.3017 36.451 55.2507 37.08 54.8307 37.437C54.7337 37.52 52.4107 39.466 49.1127 39.883C49.0697 39.889 49.0277 39.892 48.9857 39.892ZM47.1647 35.125C46.7397 35.125 46.3457 34.852 46.2107 34.424C46.0457 33.897 46.3377 33.336 46.8647 33.17C49.9947 32.187 51.1177 30.478 51.1637 30.406C51.4587 29.944 52.0747 29.801 52.5387 30.094C53.0037 30.386 53.1497 30.993 52.8627 31.46C52.8027 31.557 51.3567 33.856 47.4637 35.079C47.3647 35.11 47.2637 35.125 47.1647 35.125Z" fill="#744EAA"/>
<path d="M22.4682 85V74.8182H26.0975C26.8896 74.8182 27.5459 74.9624 28.0662 75.2507C28.5866 75.5391 28.976 75.9335 29.2346 76.4339C29.4931 76.9311 29.6223 77.4912 29.6223 78.1143C29.6223 78.7408 29.4914 79.3042 29.2296 79.8047C28.9711 80.3018 28.58 80.6963 28.0563 80.9879C27.5359 81.2763 26.8813 81.4205 26.0925 81.4205H23.5968V80.1179H25.9533C26.4538 80.1179 26.8598 80.0317 27.1713 79.8594C27.4829 79.6837 27.7116 79.4451 27.8574 79.1435C28.0033 78.8419 28.0762 78.4988 28.0762 78.1143C28.0762 77.7299 28.0033 77.3885 27.8574 77.0902C27.7116 76.7919 27.4812 76.5582 27.1664 76.3892C26.8548 76.2202 26.4438 76.1357 25.9334 76.1357H24.0044V85H22.4682ZM31.304 85V77.3636H32.7408V78.5767H32.8203C32.9595 78.1657 33.2048 77.8426 33.5561 77.6072C33.9107 77.3686 34.3118 77.2493 34.7592 77.2493C34.852 77.2493 34.9614 77.2526 35.0874 77.2592C35.2166 77.2659 35.3177 77.2741 35.3906 77.2841V78.706C35.331 78.6894 35.2249 78.6712 35.0724 78.6513C34.92 78.6281 34.7675 78.6165 34.6151 78.6165C34.2637 78.6165 33.9505 78.6911 33.6754 78.8402C33.4036 78.986 33.1882 79.1899 33.0291 79.4517C32.87 79.7102 32.7905 80.0052 32.7905 80.3366V85H31.304ZM39.6202 85.1541C38.9043 85.1541 38.2795 84.9901 37.7459 84.6619C37.2123 84.3338 36.798 83.8748 36.503 83.2848C36.208 82.6948 36.0605 82.0054 36.0605 81.2166C36.0605 80.4245 36.208 79.7318 36.503 79.1385C36.798 78.5452 37.2123 78.0845 37.7459 77.7564C38.2795 77.4283 38.9043 77.2642 39.6202 77.2642C40.3361 77.2642 40.9609 77.4283 41.4945 77.7564C42.0281 78.0845 42.4424 78.5452 42.7374 79.1385C43.0324 79.7318 43.1799 80.4245 43.1799 81.2166C43.1799 82.0054 43.0324 82.6948 42.7374 83.2848C42.4424 83.8748 42.0281 84.3338 41.4945 84.6619C40.9609 84.9901 40.3361 85.1541 39.6202 85.1541ZM39.6252 83.9062C40.0892 83.9062 40.4737 83.7836 40.7786 83.5384C41.0835 83.2931 41.3089 82.9666 41.4547 82.5589C41.6039 82.1513 41.6784 81.7022 41.6784 81.2116C41.6784 80.7244 41.6039 80.277 41.4547 79.8693C41.3089 79.4583 41.0835 79.1286 40.7786 78.88C40.4737 78.6314 40.0892 78.5071 39.6252 78.5071C39.1578 78.5071 38.7701 78.6314 38.4618 78.88C38.1569 79.1286 37.9299 79.4583 37.7807 79.8693C37.6349 80.277 37.562 80.7244 37.562 81.2116C37.562 81.7022 37.6349 82.1513 37.7807 82.5589C37.9299 82.9666 38.1569 83.2931 38.4618 83.5384C38.7701 83.7836 39.1578 83.9062 39.6252 83.9062ZM44.9585 85V74.8182H46.445V78.6016H46.5344C46.6206 78.4425 46.7449 78.2585 46.9073 78.0497C47.0697 77.8409 47.2951 77.6586 47.5835 77.5028C47.8718 77.3438 48.253 77.2642 48.7269 77.2642C49.3434 77.2642 49.8936 77.42 50.3775 77.7315C50.8614 78.0431 51.2409 78.4922 51.516 79.0788C51.7944 79.6655 51.9336 80.3714 51.9336 81.1967C51.9336 82.022 51.796 82.7296 51.521 83.3196C51.2459 83.9062 50.868 84.3587 50.3874 84.6768C49.9068 84.9917 49.3583 85.1491 48.7418 85.1491C48.2778 85.1491 47.8983 85.0713 47.6033 84.9155C47.3117 84.7597 47.083 84.5774 46.9173 84.3686C46.7515 84.1598 46.6239 83.9742 46.5344 83.8118H46.4102V85H44.9585ZM46.4151 81.1818C46.4151 81.7187 46.493 82.1894 46.6488 82.5938C46.8046 82.9981 47.0299 83.3146 47.3249 83.5433C47.6199 83.7687 47.9812 83.8814 48.4087 83.8814C48.8529 83.8814 49.2241 83.7637 49.5224 83.5284C49.8207 83.2898 50.046 82.9666 50.1985 82.5589C50.3543 82.1513 50.4322 81.6922 50.4322 81.1818C50.4322 80.678 50.3559 80.2256 50.2035 79.8246C50.0543 79.4235 49.829 79.107 49.5273 78.875C49.229 78.643 48.8562 78.527 48.4087 78.527C47.9779 78.527 47.6133 78.638 47.315 78.8601C47.02 79.0821 46.7963 79.392 46.6438 79.7898C46.4914 80.1875 46.4151 80.6515 46.4151 81.1818ZM55.0893 74.8182V85H53.6028V74.8182H55.0893ZM60.3803 85.1541C59.628 85.1541 58.98 84.9934 58.4364 84.6719C57.8962 84.3471 57.4786 83.8913 57.1836 83.3047C56.8919 82.7147 56.7461 82.0237 56.7461 81.2315C56.7461 80.4493 56.8919 79.7599 57.1836 79.1634C57.4786 78.5668 57.8896 78.1011 58.4165 77.7663C58.9469 77.4316 59.5666 77.2642 60.2759 77.2642C60.7068 77.2642 61.1244 77.3355 61.5288 77.478C61.9331 77.6205 62.296 77.8442 62.6175 78.1491C62.939 78.4541 63.1926 78.8501 63.3782 79.3374C63.5638 79.8213 63.6566 80.4096 63.6566 81.1023V81.6293H57.5863V80.5156H62.1999C62.1999 80.1245 62.1204 79.7782 61.9613 79.4766C61.8022 79.1716 61.5785 78.9313 61.2901 78.7557C61.0051 78.58 60.6703 78.4922 60.2859 78.4922C59.8683 78.4922 59.5037 78.5949 59.1921 78.8004C58.8839 79.0026 58.6452 79.2678 58.4762 79.5959C58.3105 79.9207 58.2276 80.2737 58.2276 80.6548V81.5249C58.2276 82.0353 58.3171 82.4695 58.4961 82.8274C58.6784 83.1854 58.9319 83.4588 59.2567 83.6477C59.5816 83.8333 59.9611 83.9261 60.3952 83.9261C60.677 83.9261 60.9338 83.8864 61.1658 83.8068C61.3978 83.724 61.5984 83.6013 61.7674 83.4389C61.9364 83.2765 62.0657 83.076 62.1552 82.8374L63.5621 83.0909C63.4495 83.5052 63.2473 83.8681 62.9556 84.1797C62.6673 84.4879 62.3043 84.7282 61.8668 84.9006C61.4326 85.0696 60.9371 85.1541 60.3803 85.1541ZM65.3059 85V77.3636H66.7328V78.6065H66.8272C66.9863 78.1856 67.2465 77.8575 67.6078 77.6222C67.969 77.3835 68.4016 77.2642 68.9054 77.2642C69.4158 77.2642 69.8433 77.3835 70.188 77.6222C70.536 77.8608 70.7929 78.1889 70.9586 78.6065H71.0382C71.2205 78.1989 71.5105 77.8741 71.9082 77.6321C72.3059 77.3868 72.7799 77.2642 73.3301 77.2642C74.0228 77.2642 74.5879 77.4813 75.0254 77.9155C75.4662 78.3497 75.6866 79.0043 75.6866 79.8793V85H74.2001V80.0185C74.2001 79.5014 74.0592 79.1269 73.7775 78.8949C73.4958 78.6629 73.1594 78.5469 72.7683 78.5469C72.2844 78.5469 71.9082 78.696 71.6397 78.9943C71.3713 79.2893 71.237 79.6688 71.237 80.1328V85H69.7555V79.924C69.7555 79.5097 69.6262 79.1766 69.3677 78.9247C69.1092 78.6728 68.7728 78.5469 68.3585 78.5469C68.0768 78.5469 67.8166 78.6214 67.5779 78.7706C67.3426 78.9164 67.152 79.1203 67.0062 79.3821C66.8637 79.6439 66.7924 79.9472 66.7924 80.2919V85H65.3059ZM79.9013 85.169C79.4174 85.169 78.9799 85.0795 78.5888 84.9006C78.1977 84.7183 77.8878 84.4548 77.6591 84.1101C77.4337 83.7654 77.321 83.3428 77.321 82.8423C77.321 82.4115 77.4039 82.0568 77.5696 81.7784C77.7353 81.5 77.959 81.2796 78.2408 81.1172C78.5225 80.9548 78.8374 80.8321 79.1854 80.7493C79.5334 80.6664 79.888 80.6035 80.2493 80.5604C80.7067 80.5073 81.0779 80.4643 81.3629 80.4311C81.648 80.3946 81.8551 80.3366 81.9844 80.2571C82.1136 80.1776 82.1783 80.0483 82.1783 79.8693V79.8345C82.1783 79.4003 82.0556 79.0639 81.8104 78.8253C81.5684 78.5866 81.2071 78.4673 80.7266 78.4673C80.2261 78.4673 79.8317 78.5784 79.5433 78.8004C79.2583 79.0192 79.0611 79.2628 78.9517 79.5312L77.5547 79.2131C77.7204 78.7491 77.9624 78.3745 78.2805 78.0895C78.602 77.8011 78.9716 77.5923 79.3892 77.4631C79.8068 77.3305 80.246 77.2642 80.7067 77.2642C81.0116 77.2642 81.3348 77.3007 81.6761 77.3736C82.0208 77.4432 82.3423 77.5724 82.6406 77.7614C82.9422 77.9503 83.1892 78.2204 83.3814 78.5717C83.5736 78.9197 83.6697 79.3722 83.6697 79.929V85H82.218V83.956H82.1584C82.0623 84.1482 81.9181 84.3371 81.7259 84.5227C81.5336 84.7083 81.2867 84.8625 80.9851 84.9851C80.6835 85.1077 80.3222 85.169 79.9013 85.169ZM80.2244 83.9759C80.6354 83.9759 80.9867 83.8946 81.2784 83.7322C81.5734 83.5698 81.7971 83.3577 81.9496 83.0959C82.1054 82.8307 82.1832 82.5473 82.1832 82.2457V81.2614C82.1302 81.3144 82.0275 81.3641 81.875 81.4105C81.7259 81.4536 81.5552 81.4917 81.3629 81.5249C81.1707 81.5547 80.9834 81.5829 80.8011 81.6094C80.6188 81.6326 80.4664 81.6525 80.3438 81.669C80.0554 81.7055 79.7919 81.7668 79.5533 81.853C79.3179 81.9392 79.129 82.0634 78.9865 82.2259C78.8473 82.3849 78.7777 82.5971 78.7777 82.8622C78.7777 83.2301 78.9136 83.5085 79.1854 83.6974C79.4571 83.883 79.8035 83.9759 80.2244 83.9759Z" fill="#F4F4F5"/>
<path d="M8 1H98V-1H8V1ZM105 8V104H107V8H105ZM98 111H8V113H98V111ZM1 104V8H-1V104H1ZM8 111C4.13401 111 1 107.866 1 104H-1C-1 108.971 3.02944 113 8 113V111ZM105 104C105 107.866 101.866 111 98 111V113C102.971 113 107 108.971 107 104H105ZM98 1C101.866 1 105 4.13401 105 8H107C107 3.02944 102.971 -1 98 -1V1ZM8 -1C3.02944 -1 -1 3.02944 -1 8H1C1 4.13401 4.13401 1 8 1V-1Z" fill="black"/>
</svg>
