<svg width="91" height="112" viewBox="0 0 91 112" fill="none" xmlns="http://www.w3.org/2000/svg">
<path d="M0 8C0 3.58172 3.58172 0 8 0H83C87.4183 0 91 3.58172 91 8V104C91 108.418 87.4183 112 83 112H8C3.58172 112 0 108.418 0 104V8Z" fill="#27272A"/>
<path d="M56.5 33.92C56.5 40.359 51.5 41.359 51.5 47.36C51.5 50.458 48.377 50.719 46 50.719C43.947 50.719 39.414 49.94 39.414 47.358C39.414 41.36 34.5 40.36 34.5 33.92C34.5 27.889 39.785 23 45.583 23C51.383 23 56.5 27.889 56.5 33.92Z" fill="#FFD983"/>
<path d="M49.667 55.36C49.667 56.188 47.433 57.86 45.5 57.86C43.567 57.86 41.333 56.188 41.333 55.36C41.333 54.532 43.566 54.86 45.5 54.86C47.433 54.86 49.667 54.532 49.667 55.36Z" fill="#CCD6DD"/>
<path d="M50.207 33.153C49.816 32.762 49.184 32.762 48.793 33.153L45.5 36.446L42.207 33.153C41.816 32.762 41.184 32.762 40.793 33.153C40.402 33.544 40.402 34.176 40.793 34.567L44.5 38.274V48.86C44.5 49.413 44.948 49.86 45.5 49.86C46.052 49.86 46.5 49.413 46.5 48.86V38.274L50.207 34.567C50.598 34.176 50.598 33.544 50.207 33.153Z" fill="#FFCC4D"/>
<path d="M51.5 53.86C51.5 54.964 50.604 55.86 49.5 55.86H41.5C40.396 55.86 39.5 54.964 39.5 53.86V47.86H51.5V53.86Z" fill="#99AAB5"/>
<path d="M39.499 54.86C39.019 54.86 38.595 54.513 38.514 54.024C38.423 53.48 38.791 52.964 39.336 52.874L51.336 50.874C51.88 50.776 52.396 51.151 52.486 51.696C52.577 52.24 52.209 52.756 51.664 52.846L39.664 54.846C39.609 54.856 39.553 54.86 39.499 54.86ZM39.499 50.86C39.019 50.86 38.595 50.513 38.514 50.024C38.423 49.48 38.791 48.964 39.336 48.874L51.336 46.874C51.88 46.777 52.396 47.151 52.486 47.696C52.577 48.24 52.209 48.756 51.664 48.846L39.664 50.846C39.609 50.856 39.553 50.86 39.499 50.86Z" fill="#CCD6DD"/>
<path d="M32.0494 74.8182V85H30.5131V74.8182H32.0494ZM37.0259 85.1491C36.4094 85.1491 35.8593 84.9917 35.3754 84.6768C34.8948 84.3587 34.5169 83.9062 34.2418 83.3196C33.9701 82.7296 33.8342 82.022 33.8342 81.1967C33.8342 80.3714 33.9717 79.6655 34.2468 79.0788C34.5252 78.4922 34.9064 78.0431 35.3903 77.7315C35.8742 77.42 36.4227 77.2642 37.0359 77.2642C37.5098 77.2642 37.891 77.3438 38.1793 77.5028C38.471 77.6586 38.6964 77.8409 38.8555 78.0497C39.0179 78.2585 39.1438 78.4425 39.2333 78.6016H39.3228V74.8182H40.8093V85H39.3576V83.8118H39.2333C39.1438 83.9742 39.0146 84.1598 38.8455 84.3686C38.6798 84.5774 38.4511 84.7597 38.1594 84.9155C37.8678 85.0713 37.4899 85.1491 37.0259 85.1491ZM37.354 83.8814C37.7816 83.8814 38.1429 83.7687 38.4379 83.5433C38.7362 83.3146 38.9615 82.9981 39.114 82.5938C39.2698 82.1894 39.3477 81.7187 39.3477 81.1818C39.3477 80.6515 39.2714 80.1875 39.119 79.7898C38.9665 79.392 38.7428 79.0821 38.4478 78.8601C38.1528 78.638 37.7882 78.527 37.354 78.527C36.9066 78.527 36.5337 78.643 36.2354 78.875C35.9371 79.107 35.7118 79.4235 35.5593 79.8246C35.4102 80.2256 35.3356 80.678 35.3356 81.1818C35.3356 81.6922 35.4118 82.1513 35.5643 82.5589C35.7167 82.9666 35.9421 83.2898 36.2404 83.5284C36.542 83.7637 36.9132 83.8814 37.354 83.8814ZM46.2221 85.1541C45.4698 85.1541 44.8218 84.9934 44.2782 84.6719C43.738 84.3471 43.3204 83.8913 43.0254 83.3047C42.7337 82.7147 42.5879 82.0237 42.5879 81.2315C42.5879 80.4493 42.7337 79.7599 43.0254 79.1634C43.3204 78.5668 43.7314 78.1011 44.2583 77.7663C44.7886 77.4316 45.4084 77.2642 46.1177 77.2642C46.5486 77.2642 46.9662 77.3355 47.3706 77.478C47.7749 77.6205 48.1378 77.8442 48.4593 78.1491C48.7808 78.4541 49.0344 78.8501 49.22 79.3374C49.4056 79.8213 49.4984 80.4096 49.4984 81.1023V81.6293H43.4281V80.5156H48.0417C48.0417 80.1245 47.9622 79.7782 47.8031 79.4766C47.644 79.1716 47.4203 78.9313 47.1319 78.7557C46.8469 78.58 46.5121 78.4922 46.1277 78.4922C45.71 78.4922 45.3455 78.5949 45.0339 78.8004C44.7257 79.0026 44.487 79.2678 44.318 79.5959C44.1523 79.9207 44.0694 80.2737 44.0694 80.6548V81.5249C44.0694 82.0353 44.1589 82.4695 44.3379 82.8274C44.5202 83.1854 44.7737 83.4588 45.0985 83.6477C45.4234 83.8333 45.8029 83.9261 46.237 83.9261C46.5188 83.9261 46.7756 83.8864 47.0076 83.8068C47.2396 83.724 47.4402 83.6013 47.6092 83.4389C47.7782 83.2765 47.9075 83.076 47.997 82.8374L49.4039 83.0909C49.2913 83.5052 49.0891 83.8681 48.7974 84.1797C48.5091 84.4879 48.1461 84.7282 47.7086 84.9006C47.2744 85.0696 46.7789 85.1541 46.2221 85.1541ZM51.1477 85V77.3636H52.6342V85H51.1477ZM51.8984 76.1854C51.6399 76.1854 51.4179 76.0992 51.2322 75.9268C51.05 75.7512 50.9588 75.5424 50.9588 75.3004C50.9588 75.0552 51.05 74.8464 51.2322 74.674C51.4179 74.4983 51.6399 74.4105 51.8984 74.4105C52.157 74.4105 52.3774 74.4983 52.5597 74.674C52.7453 74.8464 52.8381 75.0552 52.8381 75.3004C52.8381 75.5424 52.7453 75.7512 52.5597 75.9268C52.3774 76.0992 52.157 76.1854 51.8984 76.1854ZM56.8564 85.169C56.3725 85.169 55.935 85.0795 55.5439 84.9006C55.1528 84.7183 54.8429 84.4548 54.6142 84.1101C54.3888 83.7654 54.2761 83.3428 54.2761 82.8423C54.2761 82.4115 54.359 82.0568 54.5247 81.7784C54.6904 81.5 54.9141 81.2796 55.1958 81.1172C55.4776 80.9548 55.7924 80.8321 56.1404 80.7493C56.4885 80.6664 56.8431 80.6035 57.2044 80.5604C57.6618 80.5073 58.033 80.4643 58.318 80.4311C58.603 80.3946 58.8102 80.3366 58.9395 80.2571C59.0687 80.1776 59.1333 80.0483 59.1333 79.8693V79.8345C59.1333 79.4003 59.0107 79.0639 58.7654 78.8253C58.5235 78.5866 58.1622 78.4673 57.6816 78.4673C57.1812 78.4673 56.7868 78.5784 56.4984 78.8004C56.2134 79.0192 56.0162 79.2628 55.9068 79.5312L54.5098 79.2131C54.6755 78.7491 54.9174 78.3745 55.2356 78.0895C55.5571 77.8011 55.9267 77.5923 56.3443 77.4631C56.7619 77.3305 57.2011 77.2642 57.6618 77.2642C57.9667 77.2642 58.2898 77.3007 58.6312 77.3736C58.9759 77.4432 59.2974 77.5724 59.5957 77.7614C59.8973 77.9503 60.1442 78.2204 60.3365 78.5717C60.5287 78.9197 60.6248 79.3722 60.6248 79.929V85H59.1731V83.956H59.1135C59.0173 84.1482 58.8732 84.3371 58.6809 84.5227C58.4887 84.7083 58.2418 84.8625 57.9402 84.9851C57.6386 85.1077 57.2773 85.169 56.8564 85.169ZM57.1795 83.9759C57.5905 83.9759 57.9418 83.8946 58.2335 83.7322C58.5285 83.5698 58.7522 83.3577 58.9047 83.0959C59.0604 82.8307 59.1383 82.5473 59.1383 82.2457V81.2614C59.0853 81.3144 58.9825 81.3641 58.8301 81.4105C58.6809 81.4536 58.5102 81.4917 58.318 81.5249C58.1258 81.5547 57.9385 81.5829 57.7562 81.6094C57.5739 81.6326 57.4215 81.6525 57.2988 81.669C57.0105 81.7055 56.747 81.7668 56.5083 81.853C56.273 81.9392 56.0841 82.0634 55.9416 82.2259C55.8024 82.3849 55.7328 82.5971 55.7328 82.8622C55.7328 83.2301 55.8687 83.5085 56.1404 83.6974C56.4122 83.883 56.7586 83.9759 57.1795 83.9759Z" fill="#F4F4F5"/>
<path d="M8 1H83V-1H8V1ZM90 8V104H92V8H90ZM83 111H8V113H83V111ZM1 104V8H-1V104H1ZM8 111C4.13401 111 1 107.866 1 104H-1C-1 108.971 3.02944 113 8 113V111ZM90 104C90 107.866 86.866 111 83 111V113C87.9706 113 92 108.971 92 104H90ZM83 1C86.866 1 90 4.13401 90 8H92C92 3.02944 87.9706 -1 83 -1V1ZM8 -1C3.02944 -1 -1 3.02944 -1 8H1C1 4.13401 4.13401 1 8 1V-1Z" fill="black"/>
</svg>
