<svg width="91" height="112" viewBox="0 0 91 112" fill="none" xmlns="http://www.w3.org/2000/svg">
<path d="M0 8C0 3.58172 3.58172 0 8 0H83C87.4183 0 91 3.58172 91 8V104C91 108.418 87.4183 112 83 112H8C3.58172 112 0 108.418 0 104V8Z" fill="#27272A"/>
<path d="M63.5 34.875C63.5 31.009 60.366 27.875 56.5 27.875C55.333 27.875 54.235 28.165 53.268 28.669C51.186 25.842 47.843 24 44.063 24C38.931 24 34.588 27.38 33.14 32.036C30.482 32.653 28.5 35.03 28.5 37.875C28.5 40.854 30.674 43.32 33.521 43.788C33.737 47.737 36.998 50.875 41 50.875C43.176 50.875 45.13 49.942 46.5 48.462C47.87 49.942 49.823 50.875 52 50.875C56.143 50.875 59.5 47.518 59.5 43.375C59.5 42.665 59.395 41.981 59.211 41.33C61.73 40.271 63.5 37.78 63.5 34.875Z" fill="#85C8F8"/>
<path d="M32.5 56.875C34.1569 56.875 35.5 55.5319 35.5 53.875C35.5 52.2181 34.1569 50.875 32.5 50.875C30.8431 50.875 29.5 52.2181 29.5 53.875C29.5 55.5319 30.8431 56.875 32.5 56.875Z" fill="#85C8F8"/>
<path d="M36.548 79.9091C36.548 80.9962 36.3492 81.9309 35.9514 82.7131C35.5537 83.492 35.0085 84.0919 34.3158 84.5128C33.6264 84.9304 32.8425 85.1392 31.9642 85.1392C31.0826 85.1392 30.2954 84.9304 29.6027 84.5128C28.9133 84.0919 28.3698 83.4903 27.972 82.7081C27.5743 81.9259 27.3754 80.9929 27.3754 79.9091C27.3754 78.822 27.5743 77.889 27.972 77.1101C28.3698 76.3279 28.9133 75.728 29.6027 75.3104C30.2954 74.8894 31.0826 74.679 31.9642 74.679C32.8425 74.679 33.6264 74.8894 34.3158 75.3104C35.0085 75.728 35.5537 76.3279 35.9514 77.1101C36.3492 77.889 36.548 78.822 36.548 79.9091ZM35.0267 79.9091C35.0267 79.0805 34.8925 78.3828 34.624 77.8161C34.3589 77.246 33.9943 76.8151 33.5303 76.5234C33.0696 76.2285 32.5476 76.081 31.9642 76.081C31.3776 76.081 30.8539 76.2285 30.3932 76.5234C29.9325 76.8151 29.5679 77.246 29.2994 77.8161C29.0343 78.3828 28.9017 79.0805 28.9017 79.9091C28.9017 80.7377 29.0343 81.437 29.2994 82.0071C29.5679 82.5739 29.9325 83.0047 30.3932 83.2997C30.8539 83.5914 31.3776 83.7372 31.9642 83.7372C32.5476 83.7372 33.0696 83.5914 33.5303 83.2997C33.9943 83.0047 34.3589 82.5739 34.624 82.0071C34.8925 81.437 35.0267 80.7377 35.0267 79.9091ZM43.1814 81.8331V77.3636H44.6729V85H43.2112V83.6776H43.1317C42.956 84.0852 42.6743 84.425 42.2865 84.6967C41.902 84.9652 41.4231 85.0994 40.8497 85.0994C40.3592 85.0994 39.925 84.9917 39.5471 84.7763C39.1726 84.5575 38.8776 84.2344 38.6622 83.8068C38.4501 83.3793 38.344 82.8506 38.344 82.2209V77.3636H39.8305V82.0419C39.8305 82.5623 39.9747 82.9766 40.2631 83.2848C40.5514 83.593 40.9259 83.7472 41.3866 83.7472C41.665 83.7472 41.9418 83.6776 42.2169 83.5384C42.4953 83.3991 42.7256 83.1887 42.9079 82.907C43.0935 82.6252 43.1847 82.2673 43.1814 81.8331ZM50.2348 77.3636V78.5568H46.0637V77.3636H50.2348ZM47.1823 75.5341H48.6688V82.7578C48.6688 83.0462 48.7119 83.2633 48.798 83.4091C48.8842 83.5516 48.9952 83.6494 49.1311 83.7024C49.2703 83.7521 49.4211 83.777 49.5835 83.777C49.7029 83.777 49.8073 83.7687 49.8968 83.7521C49.9862 83.7356 50.0558 83.7223 50.1056 83.7124L50.374 84.9403C50.2878 84.9735 50.1652 85.0066 50.0061 85.0398C49.847 85.0762 49.6482 85.0961 49.4095 85.0994C49.0184 85.1061 48.6539 85.0365 48.3158 84.8906C47.9777 84.7448 47.7043 84.5194 47.4955 84.2145C47.2867 83.9096 47.1823 83.5268 47.1823 83.0661V75.5341ZM51.8792 85V77.3636H53.316V78.5767H53.3955C53.5347 78.1657 53.78 77.8426 54.1313 77.6072C54.4859 77.3686 54.887 77.2493 55.3344 77.2493C55.4272 77.2493 55.5366 77.2526 55.6626 77.2592C55.7918 77.2659 55.8929 77.2741 55.9658 77.2841V78.706C55.9062 78.6894 55.8001 78.6712 55.6476 78.6513C55.4952 78.6281 55.3427 78.6165 55.1903 78.6165C54.8389 78.6165 54.5257 78.6911 54.2506 78.8402C53.9788 78.986 53.7634 79.1899 53.6043 79.4517C53.4452 79.7102 53.3657 80.0052 53.3657 80.3366V85H51.8792ZM60.1954 85.1541C59.4795 85.1541 58.8547 84.9901 58.3211 84.6619C57.7875 84.3338 57.3732 83.8748 57.0782 83.2848C56.7832 82.6948 56.6357 82.0054 56.6357 81.2166C56.6357 80.4245 56.7832 79.7318 57.0782 79.1385C57.3732 78.5452 57.7875 78.0845 58.3211 77.7564C58.8547 77.4283 59.4795 77.2642 60.1954 77.2642C60.9113 77.2642 61.5361 77.4283 62.0697 77.7564C62.6033 78.0845 63.0176 78.5452 63.3126 79.1385C63.6076 79.7318 63.7551 80.4245 63.7551 81.2166C63.7551 82.0054 63.6076 82.6948 63.3126 83.2848C63.0176 83.8748 62.6033 84.3338 62.0697 84.6619C61.5361 84.9901 60.9113 85.1541 60.1954 85.1541ZM60.2004 83.9062C60.6644 83.9062 61.0489 83.7836 61.3538 83.5384C61.6587 83.2931 61.8841 82.9666 62.0299 82.5589C62.1791 82.1513 62.2536 81.7022 62.2536 81.2116C62.2536 80.7244 62.1791 80.277 62.0299 79.8693C61.8841 79.4583 61.6587 79.1286 61.3538 78.88C61.0489 78.6314 60.6644 78.5071 60.2004 78.5071C59.733 78.5071 59.3453 78.6314 59.037 78.88C58.7321 79.1286 58.5051 79.4583 58.3559 79.8693C58.2101 80.277 58.1372 80.7244 58.1372 81.2116C58.1372 81.7022 58.2101 82.1513 58.3559 82.5589C58.5051 82.9666 58.7321 83.2931 59.037 83.5384C59.3453 83.7836 59.733 83.9062 60.2004 83.9062Z" fill="#F4F4F5"/>
<path d="M8 1H83V-1H8V1ZM90 8V104H92V8H90ZM83 111H8V113H83V111ZM1 104V8H-1V104H1ZM8 111C4.13401 111 1 107.866 1 104H-1C-1 108.971 3.02944 113 8 113V111ZM90 104C90 107.866 86.866 111 83 111V113C87.9706 113 92 108.971 92 104H90ZM83 1C86.866 1 90 4.13401 90 8H92C92 3.02944 87.9706 -1 83 -1V1ZM8 -1C3.02944 -1 -1 3.02944 -1 8H1C1 4.13401 4.13401 1 8 1V-1Z" fill="black"/>
</svg>
